<svg version="1.2" baseProfile="tiny-ps" xmlns="http://www.w3.org/2000/svg" viewBox="0 0 120 98" width="120" height="98">
	<title>php_logo-svg</title>
	<style>
		tspan { white-space:pre }
		.s0 { fill: #000000 } 
	</style>
	<g id="g4">
		<g id="g6">
			<path id="path8" fill-rule="evenodd" class="s0" d="m9.5 31.62l17.8 0c5.22 0.04 9.01 1.54 11.35 4.49c2.35 2.95 3.12 6.98 2.32 12.09c-0.31 2.33-1 4.63-2.06 6.87c-1.02 2.25-2.43 4.27-4.25 6.08c-2.21 2.29-4.58 3.74-7.11 4.36c-2.52 0.62-5.14 0.93-7.84 0.93h-7.97l-2.52 12.55h-9.23c0 0 9.5-47.38 9.5-47.38zm3.78 27.36c0.27 0.04 0.53 0.07 0.8 0.07h0.93c4.25 0.04 7.79-0.37 10.62-1.26c2.83-0.93 4.74-4.14 5.71-9.65c0.8-4.63 0-7.29-2.39-8c-2.35-0.7-5.29-1.04-8.83-0.99c-0.53 0.04-1.04 0.07-1.53 0.07c-0.43 0-0.87 0-1.34 0l-3.97 19.76zm3.97-19.76l0.01-0.07l-0.07 0.07c0.02 0 0.04 0 0.05 0z" />
			<path id="path10" class="s0" d="m51.49 19l9.16 0l-2.59 12.62h8.23c4.52 0.09 7.88 1.01 10.09 2.78c2.26 1.76 2.92 5.11 1.99 10.04l-4.45 22l-9.3 0l4.25-21.01c0.44-2.2 0.31-3.77-0.4-4.69c-0.71-0.93-2.24-1.39-4.58-1.39l-7.37-0.07l-5.45 27.16h-9.16l9.56-47.44z" />
			<path id="path12" fill-rule="evenodd" class="s0" d="m88.22 31.62l17.8 0c5.22 0.04 9.01 1.54 11.35 4.49c2.35 2.95 3.12 6.98 2.32 12.09c-0.31 2.33-1 4.63-2.06 6.87c-1.02 2.25-2.43 4.27-4.25 6.08c-2.21 2.29-4.58 3.74-7.11 4.36c-2.52 0.62-5.14 0.93-7.84 0.93h-7.97l-2.52 12.55h-9.23l9.5-47.38zm3.78 27.36c0.27 0.04 0.53 0.07 0.8 0.07h0.93c4.25 0.04 7.79-0.37 10.62-1.26c2.83-0.93 4.74-4.14 5.71-9.65c0.8-4.63 0-7.29-2.39-8c-2.35-0.7-5.29-1.04-8.83-0.99c-0.53 0.04-1.04 0.07-1.53 0.07c-0.43 0-0.87 0-1.34 0l-3.97 19.76zm3.97-19.76l0.01-0.07l-0.07 0.07c0.02 0 0.04 0 0.05 0z" />
		</g>
	</g>
</svg>