<svg width="59" height="20" viewBox="0 0 59 20" fill="none" xmlns="http://www.w3.org/2000/svg">
<path d="M59 2.29822C59 3.09321 58.5817 3.86612 57.8328 4.29306L30.7671 19.6905C30.3675 19.9178 29.9286 20.0162 29.5 19.9978C29.0714 20.0162 28.6325 19.9178 28.2329 19.6905L1.16719 4.29306C0.41832 3.86612 0 3.09321 0 2.29822C0 1.90809 0.100844 1.51243 0.312806 1.15082C0.958028 0.0503443 2.38573 -0.326908 3.50157 0.308901L29.5 15.0991L55.4984 0.308901C56.6143 -0.326908 58.042 0.0503443 58.6872 1.15082C58.8992 1.51243 59 1.90809 59 2.29822Z" fill="white"/>
</svg>
