<svg width="37" height="13" viewBox="0 0 37 13" fill="none" xmlns="http://www.w3.org/2000/svg">
<path opacity="0.5" d="M37 1.49384C37 2.01059 36.7377 2.51298 36.268 2.79049L19.2946 12.7988C19.044 12.9466 18.7688 13.0106 18.5 12.9986C18.2312 13.0106 17.956 12.9466 17.7054 12.7988L0.731966 2.79049C0.262337 2.51298 0 2.01059 0 1.49384C0 1.24026 0.0632413 0.98308 0.196166 0.748033C0.600797 0.0327238 1.49614 -0.21249 2.1959 0.200786L18.5 9.81439L34.8041 0.200786C35.5039 -0.21249 36.3992 0.0327238 36.8038 0.748033C36.9368 0.98308 37 1.24026 37 1.49384Z" fill="white"/>
</svg>
