<svg width="20" height="59" viewBox="0 0 20 59" fill="none" xmlns="http://www.w3.org/2000/svg">
<path d="M17.7018 59C16.9068 59 16.1339 58.5817 15.7069 57.8328L0.309487 30.7671C0.0822149 30.3675 -0.0162348 29.9286 0.00216737 29.5C-0.0162347 29.0714 0.082215 28.6325 0.309487 28.2329L15.7069 1.16719C16.1339 0.41832 16.9068 -1.35209e-07 17.7018 -1.00458e-07C18.0919 -8.34051e-08 18.4876 0.100844 18.8492 0.312806C19.9497 0.958028 20.3269 2.38573 19.6911 3.50157L4.90094 29.5L19.6911 55.4984C20.3269 56.6143 19.9497 58.042 18.8492 58.6872C18.4876 58.8992 18.0919 59 17.7018 59Z" fill="#2E3538"/>
</svg>
