<svg width="150" height="100" viewBox="0 0 100 62" fill="none" xmlns="http://www.w3.org/2000/svg">
<path d="M -0.15856777,-0.15856777 100.09901,-0.02803109 100.04295,61.36005 H -0.02803109Z" fill="#333"/>
<path d="M 39.839006,28.427673 58.08407,53.631446 v 1.3998 c 0,0.553529 -0.203938,1.0311 -0.608236,1.433666 -0.406654,0.403778 -0.887538,0.603936 -1.445007,0.603936 H 43.79232 c -1.216384,0 -2.231273,-0.527805 -3.041004,-1.584715 L 24.17997,34.500636 v 20.53061 c 0,0.553529 -0.203937,1.0311 -0.608236,1.433666 -0.406566,0.403778 -0.887537,0.603936 -1.445007,0.603936 H 7.9882017 c -0.5587079,0 -1.0396092,-0.200158 -1.4450851,-0.603936 C 6.1376433,56.062346 5.9349071,55.584775 5.9349071,55.031246 V 6.270264 c 0,-0.5524111 0.2027362,-1.0299213 0.6082095,-1.4337 C 6.9485925,4.4339572 7.4294938,4.2326543 7.9882017,4.2326543 H 20.303242 c 1.216384,0 2.204146,0.5032604 2.964418,1.5097787 l 16.571346,22.719105 z" fill="white"/>
<path d="M 74.331279,21.651173 H 93.16216 V 38.92817 H 74.331279 V 38.90591 H 58.221976 L 58.08407,38.71632 58.04168,38.65777 39.839009,13.51246 V 6.270263 c 0,-0.5524111 0.202716,-1.0299213 0.608236,-1.4337 0.405433,-0.4026068 0.886403,-0.6039097 1.445094,-0.6039097 H 56.03083 c 0.557469,0 1.038441,0.2013029 1.445094,0.6039097 0.404298,0.4037787 0.608149,0.8812889 0.608149,1.4337 V 21.69569 h 16.247209 z" fill="white"/>
<path d="M 93.16216,6.373261 v 6.572767 H 74.331279 V 6.373261 c 0,-0.5524108 0.192075,-1.0310903 0.578666,-1.4336936 0.386678,-0.4014358 0.844011,-0.6039098 1.376795,-0.6039098 H 91.2067 c 0.531563,0 0.988895,0.202474 1.376708,0.6039098 0.385457,0.4026033 0.578752,0.8812828 0.578752,1.4336936 z" fill="white"/>
<path d="M 74.331279,47.633315 H 93.16216 v 7.349863 c 0,0.553615 -0.193295,1.032311 -0.578752,1.433752 -0.387813,0.402566 -0.845145,0.603935 -1.376708,0.603935 H 76.28674 c -0.532784,0 -0.990117,-0.201369 -1.376795,-0.603935 -0.386591,-0.401441 -0.578666,-0.880137 -0.578666,-1.433752 z" fill="white"/>
</svg>
