<svg width="50" height="50" viewBox="0 0 50 50" fill="none" xmlns="http://www.w3.org/2000/svg">
<path d="M25 0C11.193 0 0 11.193 0 25C0 38.807 11.193 50 25 50C38.807 50 50 38.807 50 25C49.9845 11.1995 38.8005 0.0154623 25 0ZM25 48.3333C12.1134 48.3333 1.66667 37.8866 1.66667 25C1.66667 12.1134 12.1134 1.66667 25 1.66667C37.8866 1.66667 48.3333 12.1134 48.3333 25C48.3187 37.8805 37.8805 48.3187 25 48.3333Z" fill="#FFB627"/>
<path d="M36.6667 15H13.3333C12.8731 15 12.5 15.3731 12.5 15.8333V34.1667C12.5 34.6269 12.8731 35 13.3333 35H36.6667C37.1269 35 37.5 34.6269 37.5 34.1667V15.8333C37.5 15.3731 37.1269 15 36.6667 15ZM34.4165 16.6667L25 24.7359L15.5835 16.6667H34.4165ZM14.1667 33.3333V17.6449L24.4576 26.4657C24.7693 26.7326 25.2291 26.7326 25.5408 26.4657L35.8333 17.6449V33.3333H14.1667Z" fill="#FFB627"/>
</svg>
