<svg width="50" height="50" viewBox="0 0 50 50" fill="none" xmlns="http://www.w3.org/2000/svg">
<path d="M39.9626 32.5758L34.9671 27.598C33.8333 26.4616 31.9929 26.4594 30.8565 27.5931C30.8548 27.5948 30.8532 27.5964 30.8516 27.598L27.9894 30.4602C27.7728 30.6773 27.4316 30.7073 27.1805 30.5314C25.614 29.4366 24.1475 28.205 22.7983 26.8514C21.59 25.6457 20.4784 24.347 19.4739 22.9669C19.2918 22.719 19.3182 22.3752 19.536 22.158L22.4694 19.2247C23.6019 18.09 23.6019 16.2527 22.4694 15.118L17.4739 10.1225C16.3227 9.02199 14.5095 9.02199 13.3583 10.1225L11.7762 11.7047C9.38667 14.0673 8.53365 17.5754 9.57167 20.7714C10.3463 23.1096 11.4411 25.3292 12.825 27.3669C14.0708 29.235 15.5001 30.974 17.0917 32.558C18.822 34.3007 20.7387 35.8477 22.8072 37.1714C25.0812 38.6552 27.5779 39.7655 30.2027 40.4602C30.8775 40.6266 31.57 40.7101 32.2649 40.7091C34.6473 40.6945 36.9266 39.7355 38.6027 38.0424L39.9627 36.6824C41.0951 35.5478 41.0951 33.7105 39.9626 32.5758ZM38.7039 35.4701C38.7027 35.4713 38.7016 35.4725 38.7003 35.4737L38.7092 35.447L37.3492 36.807C35.6018 38.5765 33.0569 39.3045 30.638 38.727C28.201 38.0747 25.8844 37.0364 23.7758 35.6515C21.8169 34.3995 20.0015 32.9359 18.3625 31.287C16.8545 29.79 15.4997 28.1463 14.318 26.3803C13.0255 24.4801 12.0025 22.4101 11.278 20.2292C10.4475 17.6671 11.1357 14.8557 13.0558 12.967L14.638 11.3848C15.0779 10.9429 15.7927 10.9414 16.2345 11.3813C16.2356 11.3824 16.2369 11.3836 16.238 11.3848L21.2335 16.3803C21.6754 16.8202 21.677 17.535 21.2371 17.9768C21.2359 17.9779 21.2348 17.9791 21.2335 17.9803L18.3002 20.9137C17.4585 21.7462 17.3527 23.0691 18.0514 24.0248C19.1123 25.4808 20.2864 26.8509 21.5625 28.1226C22.9853 29.5516 24.5321 30.8515 26.1847 32.0071C27.1396 32.6731 28.4342 32.5608 29.2602 31.7404L32.0957 28.8604C32.5356 28.4186 33.2504 28.417 33.6922 28.8569C33.6933 28.858 33.6945 28.8592 33.6957 28.8604L38.7002 33.8738C39.1422 34.3136 39.1438 35.0282 38.7039 35.4701Z" fill="#FFB627"/>
<path d="M25 0C11.193 0 0 11.193 0 25C0 38.807 11.193 50 25 50C38.807 50 50 38.807 50 25C49.9845 11.1995 38.8005 0.0154623 25 0ZM25 48.3333C12.1134 48.3333 1.66667 37.8866 1.66667 25C1.66667 12.1134 12.1134 1.66667 25 1.66667C37.8866 1.66667 48.3333 12.1134 48.3333 25C48.3187 37.8805 37.8805 48.3187 25 48.3333Z" fill="#FFB627"/>
</svg>
