<svg width="50" height="50" viewBox="0 0 50 50" fill="none" xmlns="http://www.w3.org/2000/svg">
<path d="M25 0C11.193 0 0 11.193 0 25C0 38.807 11.193 50 25 50C38.807 50 50 38.807 50 25C49.9845 11.1995 38.8005 0.0154623 25 0ZM25 48.3333C12.1134 48.3333 1.66667 37.8866 1.66667 25C1.66667 12.1134 12.1134 1.66667 25 1.66667C37.8866 1.66667 48.3333 12.1134 48.3333 25C48.3187 37.8805 37.8805 48.3187 25 48.3333Z" fill="#FFB627"/>
<path fill-rule="evenodd" clip-rule="evenodd" d="M15.6904 27.8318L17.9469 35.1727C17.9553 35.1995 17.9646 35.2264 17.9747 35.2524C18.2149 35.855 18.4559 36.2055 18.6283 36.3714C18.9399 36.6718 19.2597 36.7413 19.5249 36.7339C19.8976 36.7228 20.4983 36.5003 20.7366 35.6167C20.7533 35.5518 20.7653 35.486 20.77 35.4193L21.1111 30.7207L30.0252 37.2772C30.9412 37.9725 31.7645 38.1199 32.3884 37.9299C33.0318 37.7333 33.6548 37.1437 33.9497 35.8884C33.9515 35.881 33.9534 35.8735 33.9543 35.8661L38.3543 15.1333C38.6167 14.0291 38.4693 13.204 38.1105 12.7219C37.6942 12.161 36.9071 11.78 35.5684 12.1415C35.5322 12.1508 35.4961 12.1629 35.4618 12.1768L9.61783 22.1997C9.57796 22.2155 9.53902 22.234 9.50101 22.2535C8.2763 22.9108 8.00374 23.6627 8.00003 24.1494C7.9954 24.8049 8.45524 25.439 9.23586 25.7524C9.25904 25.7616 9.28222 25.7709 9.30632 25.7783L15.6904 27.8318ZM36.3713 14.1302C36.3611 14.2804 36.3407 14.4843 36.2999 14.6558C36.2971 14.6651 36.2952 14.6744 36.2934 14.6837L31.8943 35.4137C31.8572 35.5667 31.784 35.7419 31.7348 35.8513C31.618 35.7938 31.4317 35.6965 31.2972 35.5936C31.2917 35.5899 31.287 35.5861 31.2815 35.5824L20.8219 27.8903C20.5132 27.6631 20.1043 27.6214 19.7557 27.7818C19.4071 27.9431 19.1735 28.2806 19.1457 28.6635L18.9556 31.2751L17.5446 26.6869C17.4435 26.3578 17.1876 26.0982 16.8594 25.9925L10.7461 24.0252L36.1645 14.1663C36.2331 14.1506 36.3054 14.1385 36.3713 14.1302Z" fill="#FFB627"/>
<path fill-rule="evenodd" clip-rule="evenodd" d="M26.3779 21.9405C23.1571 24.9044 20.0133 27.7099 20.0133 27.7099C19.5785 28.0974 19.5414 28.764 19.9289 29.1988C20.3165 29.6327 20.9831 29.6707 21.4179 29.2831C21.4179 29.2831 29.6533 21.9321 33.1698 18.4156C33.7066 17.8798 33.8679 17.4691 33.8967 17.2985C33.9699 16.8646 33.8179 16.5586 33.5991 16.3361C33.4387 16.172 33.2004 16.0163 32.8352 16.0005C32.6562 15.9931 32.2585 16.0626 31.7226 16.3148C28.6576 17.7565 16.4699 25.876 16.4699 25.876C15.985 26.1987 15.8543 26.8541 16.177 27.3381C16.5005 27.823 17.156 27.9537 17.6399 27.6311C17.6399 27.6311 22.1762 24.605 26.3779 21.9405Z" fill="#FFB627"/>
<path fill-rule="evenodd" clip-rule="evenodd" d="M20.7432 36.812L25.3287 32.8523C25.7691 32.4722 25.8182 31.8056 25.4381 31.3652C25.0571 30.9249 24.3905 30.8757 23.9501 31.2559L19.3656 35.2155C18.9243 35.5956 18.8761 36.2622 19.2562 36.7026C19.6363 37.1439 20.3029 37.1921 20.7432 36.812Z" fill="#FFB627"/>
</svg>
