<svg width="42" height="42" viewBox="0 0 42 42" fill="none" xmlns="http://www.w3.org/2000/svg">
<circle cx="21" cy="21" r="21" fill="white"/>
<circle cx="21" cy="21" r="19.4444" fill="#4B8DBF" style="mix-blend-mode:darken"/>
<circle cx="21" cy="21" r="19.4444" fill="#4D5E98" fill-opacity="0.55"/>
<path d="M11.8452 32.2536V9.30083H30.3421V32.2536H11.8452Z" fill="#104A8D"/>
<path d="M12.0486 32.4605V9.5078H30.5455V32.4605H12.0486Z" fill="#FDF9F0"/>
<path d="M14.3867 15.7585V14.7758H26.6709V15.7585H14.3867Z" fill="#D9D9D9"/>
<path d="M14.3867 16.0392V15.7585H26.6709V16.0392H14.3867Z" fill="#C6C1BB"/>
<path d="M14.3867 18.7065V17.7239H26.6709V18.7065H14.3867Z" fill="#D9D9D9"/>
<path d="M14.3867 18.9873V18.7065H26.6709V18.9873H14.3867Z" fill="#C6C1BB"/>
<path d="M14.3867 21.6546V20.6719H26.6709V21.6546H14.3867Z" fill="#D9D9D9"/>
<path d="M14.3867 21.9354V21.6546H26.6709V21.9354H14.3867Z" fill="#C6C1BB"/>
<g clip-path="url(#clip0_108_22)">
<path d="M20.8869 31.1089C21.74 30.2913 22.1619 29.7307 22.1619 29.7307L21.4306 29.0299L21.3931 28.994L20.6619 28.2932C20.6619 28.2932 20.0769 28.6975 19.2238 29.5151C18.3256 30.3758 17.0638 30.9059 16.4638 31.4809C15.905 32.0163 15.8638 32.5177 15.7269 33.1106C15.6294 33.5347 15.455 34.0396 15.1494 34.4727C14.9769 34.7188 14.7125 34.8805 14.9863 35.1411L15.0144 35.168C15.2881 35.4304 15.455 35.177 15.7119 35.0117C16.1638 34.7206 16.6906 34.5517 17.1331 34.4583C17.7519 34.3289 18.275 34.2876 18.8338 33.7521C19.4356 33.1789 19.9906 31.9678 20.8869 31.1089V31.1089Z" fill="#84B0C1"/>
<path d="M15.2619 34.9938C15.0763 35.1339 15.0313 35.1842 15.0031 35.1555C14.975 35.1285 15.0538 35.0513 15.3163 34.7404C15.5788 34.4313 17.2513 32.886 17.2513 32.886L17.3806 33.01C17.3825 33.01 15.5525 34.7727 15.2619 34.9938Z" fill="black"/>
<path d="M17.4612 33.152C17.6642 33.152 17.8288 32.9943 17.8288 32.7998C17.8288 32.6053 17.6642 32.4476 17.4612 32.4476C17.2583 32.4476 17.0938 32.6053 17.0938 32.7998C17.0938 32.9943 17.2583 33.152 17.4612 33.152Z" fill="black"/>
<path d="M34.2481 14.3854C34.0606 14.2273 33.7325 13.9398 33.7325 13.9398C33.6395 13.8618 33.5313 13.8023 33.4141 13.7647C33.297 13.7271 33.1732 13.7121 33.05 13.7205C32.795 13.7367 32.5644 13.8427 32.4069 14.0152L30.2019 16.0798C29.2006 17.0178 26.7725 19.298 26.6113 19.4939C26.45 19.6898 26.5588 19.7994 26.5775 19.8191C26.8213 20.0761 27.2563 20.1102 27.575 19.9449C27.8919 19.7796 28.0925 19.449 28.1506 19.1076C28.19 18.8848 28.2031 18.7752 28.3756 18.6296C28.4375 18.5775 31.9269 15.4545 32.4612 14.8741C32.5494 14.7771 32.8138 14.5741 33.1063 14.7879C33.1531 14.822 34.1619 15.636 34.1619 15.636L34.8031 14.937L34.8013 14.8975C34.7938 14.8454 34.7937 14.8454 34.2481 14.3854V14.3854Z" fill="#FFC107"/>
<path d="M27.9031 22.7175L26.4969 21.3698C20.765 26.9348 18.7494 29.0712 18.2544 29.6822C18.1681 29.79 18.1775 29.9409 18.2769 30.038L20.2794 31.887C20.3806 31.984 20.5381 31.993 20.6506 31.9085C21.2881 31.4341 23.5212 29.5744 29.33 24.0813C29.3094 24.0652 27.9031 22.7175 27.9031 22.7175V22.7175Z" fill="#424242"/>
<path d="M33.7044 14.8616C33.59 14.6927 33.3125 14.4519 33.1194 14.3692C32.9 14.2758 32.7388 14.3674 32.5981 14.486C32.3506 14.6945 30.71 16.326 30.3519 16.7555C30.3106 16.804 30.2694 16.8597 30.2694 16.9208C31.2069 16.0691 32.1613 15.2263 32.4631 14.9766C32.6956 14.7843 32.9188 14.6118 33.1025 14.7879C33.1213 14.8059 33.2469 14.9029 33.4775 15.088L33.7044 14.8616V14.8616Z" fill="#D89A00"/>
<path d="M37.055 16.0116C37.2819 15.6989 36.9631 15.0143 36.4512 14.5417C35.9394 14.0691 35.2419 13.7403 34.9175 13.9631C34.5931 14.1877 30.6069 16.8525 26.0037 21.4741C25.8762 21.6142 25.8762 21.8245 26.0037 21.9466L28.7431 24.5719C28.8706 24.6941 29.09 24.712 29.2362 24.5719C34.0419 20.1426 36.83 16.3242 37.055 16.0116V16.0116Z" fill="#424242"/>
<path d="M27.7062 18.7464C27.5637 18.8363 27.62 19.2477 27.53 19.458C27.4587 19.6269 27.4606 19.7149 27.6069 19.6718C27.7625 19.6269 27.9387 19.3987 27.9387 19.0483C27.9387 18.8776 27.8562 18.6512 27.7062 18.7464V18.7464Z" fill="#FFEE58"/>
<path d="M17.21 31.9013C17.0619 32.0523 16.6944 32.302 16.5387 32.4476C16.3737 32.6021 16.2744 32.9489 16.1562 33.2184C16.0625 33.4341 15.9537 33.4395 15.9781 33.258C16.0044 33.0621 16.0344 32.8393 16.0494 32.7495C16.0794 32.568 16.13 32.3865 16.2125 32.2194C16.4975 31.639 17.1275 31.294 17.3956 31.1682C17.4537 31.1412 17.5175 31.1862 17.5081 31.2473C17.4856 31.4108 17.4162 31.6911 17.21 31.9013V31.9013Z" fill="#A8E3F0"/>
<path d="M36.4531 14.5417C36.1306 14.2434 35.7331 14.0045 35.4013 13.9236C35.4013 13.9236 35.96 14.3099 36.2881 14.6945C36.6144 15.079 36.8244 15.6252 36.665 15.9199C36.3669 16.3314 33.6313 19.6826 28.9888 24.3023L28.7469 24.1262L28.5144 24.3455C23.2363 29.3228 21.2394 30.9867 20.5869 31.497L20.3356 31.9265C20.3788 31.9498 20.4256 31.966 20.4744 31.966C20.5344 31.966 20.5963 31.948 20.6469 31.9085C21.2656 31.4485 23.3769 29.693 28.7769 24.6006C28.8388 24.6455 28.9138 24.6707 28.9906 24.6707C29.0769 24.6707 29.1631 24.6402 29.2344 24.5719C34.0381 20.1426 36.8263 16.3242 37.0531 16.0116C37.2819 15.6989 36.965 15.0143 36.4531 14.5417V14.5417Z" fill="#757575"/>
<path d="M28.5819 22.0401C28.0156 21.4974 27.3594 21.0015 26.7706 20.7158C26.7706 20.7158 26.6263 20.7068 26.4894 20.8523C26.3863 20.962 26.3619 21.1165 26.3619 21.1165C26.8081 21.3052 27.4588 21.7095 28.1938 22.412C28.745 22.9403 29.195 23.4991 29.4575 23.9861C29.5119 24.0849 29.5513 24.1712 29.5831 24.2502C29.5831 24.2502 29.7463 24.252 29.8813 24.1388C30.035 24.0113 30.0013 23.8549 30.0013 23.8549C29.7125 23.2709 29.1744 22.6079 28.5819 22.0401V22.0401Z" fill="#FFC107"/>
<path d="M27.7681 22.8163C27.0219 22.1012 26.54 21.7777 25.9775 21.5064C25.9775 21.5064 25.8481 21.5729 25.8144 21.7885C25.7919 21.9269 25.805 22.0401 25.805 22.0401L25.9644 21.8999C26.4031 22.1371 26.9394 22.518 27.5113 23.0661C28.0831 23.6141 28.5238 24.1694 28.7713 24.5916L28.625 24.7444C28.625 24.7444 28.7431 24.757 28.8875 24.7354C29.1125 24.703 29.1969 24.6042 29.1969 24.6042C28.9119 24.058 28.5144 23.5333 27.7681 22.8163V22.8163Z" fill="#212121"/>
<path d="M35.5888 15.3252C35.2081 14.9604 34.7844 14.6172 34.37 14.3441C34.37 14.3441 34.0869 14.2398 33.8262 14.4698C33.5656 14.6998 33.5469 14.9406 33.5469 14.9406C33.9331 15.1688 34.3963 15.5066 34.8988 15.9882C35.3694 16.4392 35.7631 16.91 36.0331 17.3413C36.0331 17.3413 36.3219 17.3197 36.5225 17.0897C36.725 16.8597 36.6538 16.5506 36.6538 16.5506C36.3613 16.1338 35.9881 15.7079 35.5888 15.3252V15.3252Z" fill="#FFC107"/>
<path d="M34.1244 14.5615C34.0269 14.5812 33.935 14.6531 33.9294 14.7484C33.9238 14.8454 34.0044 14.9227 34.0794 14.9873C34.3156 15.1922 34.5594 15.4006 34.8613 15.4977C34.9288 15.5192 35.0131 15.53 35.06 15.4797C35.09 15.4473 35.0919 15.4006 35.0881 15.3575C35.0731 15.1832 34.9831 15.0215 34.8613 14.8903C34.6738 14.6855 34.4281 14.5004 34.1244 14.5615V14.5615Z" fill="#FFEE58"/>
<path d="M20.885 31.7288C20.6206 31.3713 20.2212 30.8735 19.715 30.3794C19.2594 29.9355 18.8037 29.6409 18.4475 29.4558C18.3669 29.5474 18.3031 29.6229 18.2544 29.684C18.1681 29.7918 18.1775 29.9427 18.2769 30.0398L20.2794 31.8888C20.3806 31.9858 20.5381 31.9948 20.6506 31.9103C20.7125 31.8636 20.7894 31.8025 20.885 31.7288V31.7288Z" fill="#FFC107"/>
<path d="M19.3962 30.1709C19.595 30.3506 19.7844 30.5645 19.8256 30.8232C19.8312 30.8591 19.8331 30.8969 19.8219 30.931C19.7956 31.0011 19.7112 31.0406 19.6325 31.037C19.5537 31.0334 19.4825 30.9957 19.4169 30.9544C19.3044 30.8825 19.205 30.7927 19.1056 30.7046C18.9069 30.5267 18.3612 30.1961 18.5581 29.8709C18.7475 29.56 19.2369 30.0254 19.3962 30.1709Z" fill="#FFEE58"/>
<path d="M20.3262 29.1108C20.1181 29.2671 19.5012 29.5474 19.9756 28.8359C20.0881 28.6687 20.4687 28.2177 20.63 28.0362C21.2506 27.3319 22.7281 25.6159 25.2125 23.3248C25.2125 23.3248 26.105 22.5504 26.315 22.7265C26.525 22.9026 26.2119 23.4219 25.2069 24.5C24.3256 25.4488 21.4062 28.2932 20.3262 29.1108V29.1108ZM29.4275 20.3582C29.4275 20.3582 28.7694 21.1201 28.2912 20.7338C27.9125 20.4265 28.79 19.6988 28.79 19.6988C28.8125 19.6754 31.8219 16.9657 32.7162 16.2775C33.0837 15.9936 33.5525 15.6773 33.6819 15.787C33.8112 15.8966 33.5975 16.2452 33.0331 16.7824C32.4669 17.3197 29.4481 20.3366 29.4275 20.3582V20.3582Z" fill="#757575"/>
</g>
<defs>
<clipPath id="clip0_108_22">
<rect width="24" height="23" fill="white" transform="translate(14 13)"/>
</clipPath>
</defs>
</svg>
